<mxfile host="app.diagrams.net" modified="2020-11-17T12:21:02.302Z" agent="5.0 (Windows)" etag="biIT4_ldEZpT3wR3TkpS" version="13.9.9" type="github">
  <diagram id="ih4VVNaegZ7z0H4zHUbt" name="Page-1">
    <mxGraphModel dx="5662" dy="533" grid="1" gridSize="10" guides="1" tooltips="1" connect="1" arrows="1" fold="1" page="1" pageScale="1" pageWidth="4681" pageHeight="3300" math="0" shadow="0">
      <root>
        <mxCell id="0" />
        <mxCell id="1" parent="0" />
        <mxCell id="DQvYJj_Bxt2w9UPb4Z1Z-1" value="&lt;div&gt;STM32F103CBT6&lt;/div&gt;&lt;div&gt;MicroController&lt;br&gt;&lt;/div&gt;" style="whiteSpace=wrap;html=1;aspect=fixed;" vertex="1" parent="1">
          <mxGeometry x="180" y="230" width="140" height="140" as="geometry" />
        </mxCell>
        <mxCell id="DQvYJj_Bxt2w9UPb4Z1Z-2" value="&lt;div&gt;STM32F030F4P6&lt;/div&gt;&lt;div&gt;MicroController&lt;br&gt;&lt;/div&gt;" style="rounded=0;whiteSpace=wrap;html=1;" vertex="1" parent="1">
          <mxGeometry x="200" y="450" width="100" height="140" as="geometry" />
        </mxCell>
        <mxCell id="DQvYJj_Bxt2w9UPb4Z1Z-3" value="Sim800 Module" style="whiteSpace=wrap;html=1;aspect=fixed;" vertex="1" parent="1">
          <mxGeometry x="-60" y="250" width="90" height="90" as="geometry" />
        </mxCell>
        <mxCell id="DQvYJj_Bxt2w9UPb4Z1Z-4" value="&lt;div&gt;EEPROM&lt;/div&gt;&lt;div&gt;2Mbits&lt;br&gt;&lt;/div&gt;" style="whiteSpace=wrap;html=1;aspect=fixed;" vertex="1" parent="1">
          <mxGeometry x="450" y="250" width="90" height="90" as="geometry" />
        </mxCell>
        <mxCell id="DQvYJj_Bxt2w9UPb4Z1Z-5" value="" style="endArrow=classic;html=1;entryX=0.29;entryY=1.002;entryDx=0;entryDy=0;entryPerimeter=0;exitX=0.207;exitY=0;exitDx=0;exitDy=0;exitPerimeter=0;" edge="1" parent="1" source="DQvYJj_Bxt2w9UPb4Z1Z-2" target="DQvYJj_Bxt2w9UPb4Z1Z-1">
          <mxGeometry width="50" height="50" relative="1" as="geometry">
            <mxPoint x="220" y="450" as="sourcePoint" />
            <mxPoint x="270" y="400" as="targetPoint" />
          </mxGeometry>
        </mxCell>
        <mxCell id="DQvYJj_Bxt2w9UPb4Z1Z-6" value="" style="endArrow=classic;html=1;entryX=0.314;entryY=0.993;entryDx=0;entryDy=0;entryPerimeter=0;exitX=0.25;exitY=0;exitDx=0;exitDy=0;" edge="1" parent="1">
          <mxGeometry width="50" height="50" relative="1" as="geometry">
            <mxPoint x="241.04" y="450" as="sourcePoint" />
            <mxPoint x="240.00000000000003" y="369.02" as="targetPoint" />
          </mxGeometry>
        </mxCell>
        <mxCell id="DQvYJj_Bxt2w9UPb4Z1Z-7" value="" style="endArrow=classic;html=1;entryX=0.314;entryY=0.993;entryDx=0;entryDy=0;entryPerimeter=0;exitX=0.25;exitY=0;exitDx=0;exitDy=0;" edge="1" parent="1">
          <mxGeometry width="50" height="50" relative="1" as="geometry">
            <mxPoint x="261.04" y="450.98" as="sourcePoint" />
            <mxPoint x="260.00000000000006" y="370" as="targetPoint" />
          </mxGeometry>
        </mxCell>
        <mxCell id="DQvYJj_Bxt2w9UPb4Z1Z-8" value="" style="endArrow=classic;html=1;entryX=0.314;entryY=0.993;entryDx=0;entryDy=0;entryPerimeter=0;exitX=0.25;exitY=0;exitDx=0;exitDy=0;" edge="1" parent="1">
          <mxGeometry width="50" height="50" relative="1" as="geometry">
            <mxPoint x="281.04" y="450.98" as="sourcePoint" />
            <mxPoint x="280.00000000000006" y="370" as="targetPoint" />
          </mxGeometry>
        </mxCell>
        <mxCell id="DQvYJj_Bxt2w9UPb4Z1Z-9" value="RST" style="text;html=1;align=center;verticalAlign=middle;resizable=0;points=[];autosize=1;rotation=-90;" vertex="1" parent="1">
          <mxGeometry x="190" y="400" width="40" height="20" as="geometry" />
        </mxCell>
        <mxCell id="DQvYJj_Bxt2w9UPb4Z1Z-10" value="BOOT0" style="text;html=1;align=center;verticalAlign=middle;resizable=0;points=[];autosize=1;rotation=-90;" vertex="1" parent="1">
          <mxGeometry x="200" y="400" width="60" height="20" as="geometry" />
        </mxCell>
        <mxCell id="DQvYJj_Bxt2w9UPb4Z1Z-11" value="BOOT1" style="text;html=1;align=center;verticalAlign=middle;resizable=0;points=[];autosize=1;rotation=-90;" vertex="1" parent="1">
          <mxGeometry x="220" y="400" width="60" height="20" as="geometry" />
        </mxCell>
        <mxCell id="DQvYJj_Bxt2w9UPb4Z1Z-12" value="FB" style="text;html=1;align=center;verticalAlign=middle;resizable=0;points=[];autosize=1;rotation=-90;" vertex="1" parent="1">
          <mxGeometry x="260" y="400" width="30" height="20" as="geometry" />
        </mxCell>
        <mxCell id="DQvYJj_Bxt2w9UPb4Z1Z-13" value="" style="endArrow=classic;startArrow=classic;html=1;entryX=-0.022;entryY=0.319;entryDx=0;entryDy=0;entryPerimeter=0;exitX=1.003;exitY=0.357;exitDx=0;exitDy=0;exitPerimeter=0;" edge="1" parent="1" source="DQvYJj_Bxt2w9UPb4Z1Z-1" target="DQvYJj_Bxt2w9UPb4Z1Z-4">
          <mxGeometry width="50" height="50" relative="1" as="geometry">
            <mxPoint x="321" y="279" as="sourcePoint" />
            <mxPoint x="410" y="270" as="targetPoint" />
          </mxGeometry>
        </mxCell>
        <mxCell id="DQvYJj_Bxt2w9UPb4Z1Z-14" value="" style="endArrow=classic;startArrow=classic;html=1;exitX=1.034;exitY=0.426;exitDx=0;exitDy=0;exitPerimeter=0;" edge="1" parent="1" source="DQvYJj_Bxt2w9UPb4Z1Z-2">
          <mxGeometry width="50" height="50" relative="1" as="geometry">
            <mxPoint x="360" y="390" as="sourcePoint" />
            <mxPoint x="400" y="280" as="targetPoint" />
            <Array as="points">
              <mxPoint x="400" y="510" />
            </Array>
          </mxGeometry>
        </mxCell>
        <mxCell id="DQvYJj_Bxt2w9UPb4Z1Z-15" value="" style="endArrow=classic;html=1;exitX=1;exitY=0.5;exitDx=0;exitDy=0;entryX=-0.052;entryY=0.551;entryDx=0;entryDy=0;entryPerimeter=0;" edge="1" parent="1" source="DQvYJj_Bxt2w9UPb4Z1Z-1" target="DQvYJj_Bxt2w9UPb4Z1Z-4">
          <mxGeometry width="50" height="50" relative="1" as="geometry">
            <mxPoint x="360" y="390" as="sourcePoint" />
            <mxPoint x="410" y="340" as="targetPoint" />
          </mxGeometry>
        </mxCell>
        <mxCell id="DQvYJj_Bxt2w9UPb4Z1Z-16" value="" style="endArrow=classic;html=1;exitX=1.025;exitY=0.314;exitDx=0;exitDy=0;exitPerimeter=0;" edge="1" parent="1" source="DQvYJj_Bxt2w9UPb4Z1Z-2">
          <mxGeometry width="50" height="50" relative="1" as="geometry">
            <mxPoint x="320" y="420" as="sourcePoint" />
            <mxPoint x="380" y="300" as="targetPoint" />
            <Array as="points">
              <mxPoint x="380" y="494" />
            </Array>
          </mxGeometry>
        </mxCell>
        <mxCell id="DQvYJj_Bxt2w9UPb4Z1Z-17" value="SDA" style="text;html=1;align=center;verticalAlign=middle;resizable=0;points=[];autosize=1;" vertex="1" parent="1">
          <mxGeometry x="350" y="260" width="40" height="20" as="geometry" />
        </mxCell>
        <mxCell id="DQvYJj_Bxt2w9UPb4Z1Z-18" value="SCL" style="text;html=1;align=center;verticalAlign=middle;resizable=0;points=[];autosize=1;" vertex="1" parent="1">
          <mxGeometry x="350" y="280" width="40" height="20" as="geometry" />
        </mxCell>
        <mxCell id="DQvYJj_Bxt2w9UPb4Z1Z-19" value="SDA" style="text;html=1;align=center;verticalAlign=middle;resizable=0;points=[];autosize=1;rotation=0;" vertex="1" parent="1">
          <mxGeometry x="310" y="510" width="40" height="20" as="geometry" />
        </mxCell>
        <mxCell id="DQvYJj_Bxt2w9UPb4Z1Z-20" value="SCL" style="text;html=1;align=center;verticalAlign=middle;resizable=0;points=[];autosize=1;rotation=0;" vertex="1" parent="1">
          <mxGeometry x="310" y="470" width="40" height="20" as="geometry" />
        </mxCell>
        <mxCell id="DQvYJj_Bxt2w9UPb4Z1Z-21" value="" style="endArrow=classic;html=1;exitX=0.996;exitY=0.424;exitDx=0;exitDy=0;exitPerimeter=0;entryX=-0.016;entryY=0.419;entryDx=0;entryDy=0;entryPerimeter=0;" edge="1" parent="1" source="DQvYJj_Bxt2w9UPb4Z1Z-3" target="DQvYJj_Bxt2w9UPb4Z1Z-1">
          <mxGeometry width="50" height="50" relative="1" as="geometry">
            <mxPoint x="60" y="300" as="sourcePoint" />
            <mxPoint x="110" y="250" as="targetPoint" />
          </mxGeometry>
        </mxCell>
        <mxCell id="DQvYJj_Bxt2w9UPb4Z1Z-22" value="" style="endArrow=classic;html=1;exitX=-0.023;exitY=0.552;exitDx=0;exitDy=0;exitPerimeter=0;entryX=1.006;entryY=0.636;entryDx=0;entryDy=0;entryPerimeter=0;" edge="1" parent="1" source="DQvYJj_Bxt2w9UPb4Z1Z-1" target="DQvYJj_Bxt2w9UPb4Z1Z-3">
          <mxGeometry width="50" height="50" relative="1" as="geometry">
            <mxPoint x="220" y="370" as="sourcePoint" />
            <mxPoint x="40" y="310" as="targetPoint" />
          </mxGeometry>
        </mxCell>
        <mxCell id="DQvYJj_Bxt2w9UPb4Z1Z-23" value="TX" style="text;html=1;align=center;verticalAlign=middle;resizable=0;points=[];autosize=1;" vertex="1" parent="1">
          <mxGeometry x="30" y="270" width="30" height="20" as="geometry" />
        </mxCell>
        <mxCell id="DQvYJj_Bxt2w9UPb4Z1Z-24" value="TX" style="text;html=1;align=center;verticalAlign=middle;resizable=0;points=[];autosize=1;" vertex="1" parent="1">
          <mxGeometry x="140" y="310" width="30" height="20" as="geometry" />
        </mxCell>
        <mxCell id="DQvYJj_Bxt2w9UPb4Z1Z-25" value="RX" style="text;html=1;align=center;verticalAlign=middle;resizable=0;points=[];autosize=1;" vertex="1" parent="1">
          <mxGeometry x="140" y="270" width="30" height="20" as="geometry" />
        </mxCell>
        <mxCell id="DQvYJj_Bxt2w9UPb4Z1Z-26" value="RX" style="text;html=1;align=center;verticalAlign=middle;resizable=0;points=[];autosize=1;" vertex="1" parent="1">
          <mxGeometry x="30" y="310" width="30" height="20" as="geometry" />
        </mxCell>
        <mxCell id="DQvYJj_Bxt2w9UPb4Z1Z-27" value="" style="endArrow=classic;html=1;exitX=-0.037;exitY=0.426;exitDx=0;exitDy=0;exitPerimeter=0;" edge="1" parent="1" source="DQvYJj_Bxt2w9UPb4Z1Z-2">
          <mxGeometry width="50" height="50" relative="1" as="geometry">
            <mxPoint x="80" y="470" as="sourcePoint" />
            <mxPoint x="120" y="290" as="targetPoint" />
            <Array as="points">
              <mxPoint x="120" y="510" />
            </Array>
          </mxGeometry>
        </mxCell>
        <mxCell id="DQvYJj_Bxt2w9UPb4Z1Z-28" value="TX" style="text;html=1;align=center;verticalAlign=middle;resizable=0;points=[];autosize=1;" vertex="1" parent="1">
          <mxGeometry x="140" y="490" width="30" height="20" as="geometry" />
        </mxCell>
        <mxCell id="DQvYJj_Bxt2w9UPb4Z1Z-29" value="" style="endArrow=classic;html=1;exitX=0;exitY=0.25;exitDx=0;exitDy=0;" edge="1" parent="1" source="DQvYJj_Bxt2w9UPb4Z1Z-2">
          <mxGeometry width="50" height="50" relative="1" as="geometry">
            <mxPoint x="216.30000000000018" y="529.6400000000001" as="sourcePoint" />
            <mxPoint x="140" y="310" as="targetPoint" />
            <Array as="points">
              <mxPoint x="140" y="485" />
            </Array>
          </mxGeometry>
        </mxCell>
        <mxCell id="DQvYJj_Bxt2w9UPb4Z1Z-30" value="RX" style="text;html=1;align=center;verticalAlign=middle;resizable=0;points=[];autosize=1;" vertex="1" parent="1">
          <mxGeometry x="140" y="460" width="30" height="20" as="geometry" />
        </mxCell>
        <mxCell id="DQvYJj_Bxt2w9UPb4Z1Z-32" value="UART " style="rounded=0;whiteSpace=wrap;html=1;rotation=-90;" vertex="1" parent="1">
          <mxGeometry x="160" y="295" width="60" height="10" as="geometry" />
        </mxCell>
        <mxCell id="DQvYJj_Bxt2w9UPb4Z1Z-33" value="I2C" style="rounded=0;whiteSpace=wrap;html=1;rotation=-90;" vertex="1" parent="1">
          <mxGeometry x="280" y="295" width="60" height="10" as="geometry" />
        </mxCell>
      </root>
    </mxGraphModel>
  </diagram>
</mxfile>
